<svg xmlns="http://www.w3.org/2000/svg" version="1.1" xmlns:xlink="http://www.w3.org/1999/xlink" width="100" height="100" x="0" y="0" viewBox="0 0 512 512" style="enable-background:new 0 0 512 512" xml:space="preserve" class=""><g><path d="M48.129 237.862.166 312.124a1.025 1.025 0 0 0 .861 1.582h31.276c.347 0 .671-.176.86-.467L79.364 242.1a1.025 1.025 0 0 0-.752-1.578l-29.515-3.123a1.022 1.022 0 0 0-.968.463zM56.611 226.427c-.803 0-1.294-.88-.873-1.564 2.849-4.619 11.188-18.071 13.567-21.16 2.76-3.783 6.419-5.396 10.263-5.396h44.707c.566 0 1.025.459 1.025 1.025v18.609c0 1.123 1.549 1.436 1.969.394 1.214-3.012 2.963-6.528 5.178-8.816 4.27-4.432 9.968-10.572 22.978-11.394l.081-.003h94.802c.566 0 1.025.459 1.025 1.025V225.4c0 .566-.459 1.025-1.025 1.025H56.611v.002zM512 225.332v-26.276c0-.566-.459-1.025-1.025-1.025H409.467l-.081.003c-14.69.931-25.75 9.932-30.065 25.893a1.007 1.007 0 0 0-.034.262v1.122c0 .566.459 1.025 1.025 1.025l130.662.022a1.027 1.027 0 0 0 1.026-1.026zM283.973 226.335h-26.612a1.025 1.025 0 0 1-1.025-1.025v-26.117c0-.566.459-1.025 1.025-1.025h26.612c.566 0 1.025.459 1.025 1.025v26.117a1.024 1.024 0 0 1-1.025 1.025zM378.054 226.335h-26.586a1.025 1.025 0 0 1-1.025-1.025v-26.117c0-.566.459-1.025 1.025-1.025h26.586c.566 0 1.025.459 1.025 1.025v26.117c0 .566-.459 1.025-1.025 1.025zM378.114 245.732l-26.106-1.544a1.025 1.025 0 0 0-1.086 1.024v31.591s-.085 9.413-9.281 9.413h-48.336a.976.976 0 0 1-.108-.005c-.717-.077-8.138-1.076-8.138-9.321v-36.247c0-.538-.416-.984-.952-1.023l-26.39-1.886a1.025 1.025 0 0 0-1.098 1.023v48.904c0 .071.007.143.02.213 4.639 23.941 26.509 25.785 26.509 25.785s2.109.141 2.565.18a.99.99 0 0 0 .077.003h65.27a.95.95 0 0 0 .093-.004c1.28-.117 27.924-2.862 27.924-28.791v-38.291a1.022 1.022 0 0 0-.963-1.024z" style="" fill="#000000" data-original="#0964af" opacity="1" class=""></path><path d="M97.232 313.723h132.921c.073 0 .148-.007.219-.022 23.247-4.678 25.679-25.589 25.679-25.589 1.038-5.895.521-10.724.462-11.229a1.07 1.07 0 0 0-.011-.079c-.741-4.268-8.817-22.727-26.29-24.336-9.702-.893-90.571-7.258-102.084-8.163a1.018 1.018 0 0 0-1.076 1.237c1.927 8.335 5.842 12.665 8.488 15.196 6.205 5.895 15.937 7.731 16.687 7.865.031.005.05.008.081.011 3.024.278 71.633 5.896 71.633 5.896 2.204.115 6.382.667 6.332 6.076 0 .653-.603 5.423-5.914 5.423h-99.255a1.025 1.025 0 0 1-1.025-1.025v-40.065c0-.538-.415-.984-.951-1.023l-25.822-1.871a1.025 1.025 0 0 0-1.099 1.023V312.7c0 .564.459 1.023 1.025 1.023zM379.347 286.858a1.025 1.025 0 0 1 1.025-1.023h98.565c1.802 0 4.436-1.019 4.883-1.448.983-.944 1.76-2.568 1.76-4.132 0-5.397-4.496-5.631-6.752-5.746 0 0-69.41-5.732-72.373-5.97a.66.66 0 0 1-.076-.01c-.713-.116-9.908-1.714-16.125-7.635-2.661-2.5-6.144-5.217-8.86-13.592-.223-.689.309-1.394 1.032-1.352 11.954.699 92.825 5.443 102.44 6.333 17.547 1.662 25.765 18.84 26.505 24.556 0 0 .753 5.166-.159 11.509 0 0-3.631 24.125-29.324 25.619a2.083 2.083 0 0 1-.079.002H380.315c-.567 0-1.027-.46-1.025-1.028l.057-26.083z" style="" fill="#000000" data-original="#0964af" opacity="1" class=""></path><path d="m20.805 312.124 46.985-72.748-18.692-1.978a1.026 1.026 0 0 0-.969.463L.166 312.124a1.025 1.025 0 0 0 .861 1.581h20.639a1.024 1.024 0 0 1-.861-1.581zM399.927 225.196c0-.093.01-.182.034-.272 4.527-17.392 16.141-25.974 30.065-26.891l.081-.003h-20.639l-.081.003c-14.689.931-25.751 9.932-30.065 25.893a1.007 1.007 0 0 0-.034.262v1.122c0 .566.459 1.025 1.025 1.025l19.614.003v-1.142zM276.976 225.31v-26.118c0-.566.459-1.025 1.025-1.025h-20.639c-.566 0-1.025.459-1.025 1.025v26.118c0 .566.459 1.025 1.025 1.025h20.639a1.025 1.025 0 0 1-1.025-1.025zM371.081 225.31v-26.118c0-.566.459-1.025 1.025-1.025h-20.639c-.566 0-1.025.459-1.025 1.025v26.118c0 .566.459 1.025 1.025 1.025h20.639a1.025 1.025 0 0 1-1.025-1.025zM371.562 276.803v-31.458l-19.553-1.157a1.026 1.026 0 0 0-1.086 1.024v31.591s-.085 9.413-9.281 9.413h20.639c9.196 0 9.281-9.413 9.281-9.413zM303.789 313.659s-21.87-1.844-26.509-25.785a1.173 1.173 0 0 1-.02-.213v-48.53l-19.541-1.397a1.025 1.025 0 0 0-1.098 1.023v48.904c0 .071.007.143.02.213 4.639 23.941 26.509 25.785 26.509 25.785s2.109.141 2.565.18a.99.99 0 0 0 .077.003h20.639a.99.99 0 0 1-.077-.003c-.456-.039-2.565-.18-2.565-.18zM116.846 312.698V243.44l-19.54-1.416a1.025 1.025 0 0 0-1.099 1.023v69.652c0 .566.459 1.025 1.025 1.025h20.639a1.027 1.027 0 0 1-1.025-1.026zM399.929 312.942l.057-26.084a1.025 1.025 0 0 1 1.025-1.023h-20.639c-.565 0-1.024.458-1.025 1.023l-.057 26.084a1.025 1.025 0 0 0 1.025 1.027h20.639c-.567 0-1.026-.46-1.025-1.027zM155.506 198.031l-.081.003c-3.719.235-6.824.914-9.485 1.854v.106c-6.645 2.346-10.445 6.363-13.492 9.526-2.215 2.288-3.964 5.804-5.178 8.816-.42 1.042-1.968.73-1.969-.393l.011 8.485h22.209c-1.638-7.534 4.254-15.423 4.278-15.455.412-.553.838-1.079 1.288-1.544 4.27-4.432 9.968-10.572 22.978-11.394l.081-.003-20.64-.001zM69.305 203.611c-2.379 3.089-10.718 16.542-13.567 21.16-.422.683.07 1.564.873 1.564H77.25a1.026 1.026 0 0 1-.873-1.564c2.849-4.619 11.188-18.071 13.566-21.16 2.76-3.783 6.419-5.396 10.263-5.396H79.569c-3.845-.001-7.503 1.613-10.264 5.396zM135.541 260.737c6.205 5.895 15.937 7.73 16.687 7.865.031.005.05.008.081.011 1.042.096 9.87.826 20.996 1.741-19.373-8.919-22.582-24.269-22.582-24.269-10.867-.858-19.401-1.53-22.595-1.78a1.017 1.017 0 0 0-1.076 1.236c1.928 8.334 5.843 12.665 8.489 15.196zM390.254 260.894c6.217 5.921 15.412 7.519 16.125 7.635a.66.66 0 0 0 .076.01c.879.071 7.603.624 16.628 1.369-16.914-9.101-20.132-22.75-20.132-22.75-9.809-.581-17.451-1.028-20.526-1.209-.723-.042-1.255.663-1.032 1.352 2.717 8.376 6.2 11.093 8.861 13.593z" style="" fill="#000000" data-original="#004f9c" class="" opacity="1"></path></g></svg>