<svg xmlns="http://www.w3.org/2000/svg" version="1.1" xmlns:xlink="http://www.w3.org/1999/xlink" width="100" height="100" x="0" y="0" viewBox="0 0 512 512" style="enable-background:new 0 0 512 512" xml:space="preserve" class="">
                        <g>
                            <path d="M83.379 249.554c-.895 1.438.683 3.153 2.091 2.271l35.801-22.43a1.661 1.661 0 0 0 .472-2.329c-11.06-15.86-31.227-26.686-56.103-26.686C29.386 200.381 0 225.282 0 256c0 30.827 29.503 55.62 65.64 55.62 22.545 0 42.731-9.111 54.268-24.283.698-.918.144-1.898-.341-3.546-.366-1.244-1.911-1.556-2.683-.536-4.429 5.851-17.025 19.784-36.557 19.784-16.732 0-31.767-9.434-39.966-23.497-23.058-39.41 14.617-89.961 58.425-62.24.744.471.958 1.499.483 2.262l-15.89 29.99zM124.37 281.701c0 15.526 15.438 28.111 34.483 28.111 15.917 0 29.316-8.792 33.287-20.746l5.244 18.348c.407 1.423 1.658 2.398 3.078 2.398h24.218c1.769 0 3.04-1.781 2.536-3.556L206.82 234.38s-8.093-23.054-33.628-13.334c-13.09 4.983-20.983 8.361-25.567 10.47-1.417.652-.963 2.864.585 2.864h25.445c1.692 0 3.184 1.162 3.669 2.858l7.397 25.875c-6.319-5.84-15.566-9.523-25.869-9.523-18.947 0-34.482 12.498-34.482 28.111zm48.181-17.558c9.522 0 17.296 8.063 17.296 18.096 0 10.322-8.261 18.627-18.244 18.07-9.837-.549-17.704-10.017-16.157-20.783 1.252-8.707 8.433-15.383 17.105-15.383zM285.013 306.636c0 1.754 1.359 3.176 3.035 3.176h25.27c1.504 0 2.724-1.276 2.724-2.85v-72.464c-.235-8.756-7.09-15.779-15.515-15.779-7.622 0-18.477 7.08-29.624 13.513a1.849 1.849 0 0 1-2.729-1.209c-1.625-7.067-7.204-12.303-14.477-12.303-6.382 0-21.717 8.688-29.128 13.122-1.157.692-.685 2.538.649 2.538h10.986c1.093 0 1.979.927 1.979 2.07v71.298c0 1.139.883 2.063 1.972 2.063h26.03c1.354 0 2.451-1.148 2.451-2.564 0-.029-.002-67.198.003-67.227 3.373-9.031 16.374-6.669 16.374 3.631v62.985zM370.773 311.619c24.678 0 44.687-20.928 44.687-46.752 0-25.821-20.006-46.751-44.687-46.751-30.487 0-51.959 31.269-42.448 61.399 5.877 18.649 22.66 32.104 42.448 32.104zm-7.902-88.814c5.876 0 10.717 4.643 11.351 10.615 17.739 63.432 16.638 59.101 16.638 60.601 0 6.599-5.113 11.948-11.421 11.948-6.17 0-11.197-5.121-11.28-11.52l-17.363-60.069c.708-5.887 6.256-11.575 12.075-11.575zM480.971 306.636c0 1.754 1.359 3.176 3.035 3.176h25.27c1.504 0 2.724-1.276 2.724-2.85v-72.464c-.235-8.756-7.09-15.779-15.515-15.779-7.622 0-18.477 7.08-29.624 13.513a1.849 1.849 0 0 1-2.729-1.209c-1.625-7.067-7.204-12.303-14.477-12.303-6.382 0-21.717 8.688-29.128 13.122-1.157.692-.685 2.538.649 2.538h10.986c1.093 0 1.979.927 1.979 2.07v71.298c0 1.139.883 2.063 1.972 2.063h26.03c1.354 0 2.451-1.148 2.451-2.564 0-.029-.002-67.199.003-67.227 3.373-9.031 16.374-6.669 16.374 3.631v62.985z" fill="#000000" data-original="#e85454" class="" opacity="1"></path>
                            <path d="M256.728 307.41v-83.014c0-1.331-.886-2.411-1.979-2.411h-10.986c-.183 0-.346-.047-.494-.119-6.618 2.934-14.15 7.253-18.699 9.975-1.158.693-.685 2.538.649 2.538h10.986c1.093 0 1.979.927 1.979 2.07v71.298c0 1.139.883 2.063 1.972 2.063H258.7c-1.09.002-1.972-1.074-1.972-2.4zM452.686 307.41v-83.014c0-1.331-.886-2.411-1.979-2.411h-10.986c-.183 0-.346-.047-.495-.119-6.618 2.934-14.15 7.253-18.699 9.975-1.157.693-.684 2.538.649 2.538h10.986c1.093 0 1.979.927 1.979 2.07v71.298c0 1.139.883 2.063 1.972 2.063h18.544c-1.089.002-1.971-1.074-1.971-2.4zM20.605 256c0-27.791 24.054-50.818 55.485-54.954a82.127 82.127 0 0 0-10.45-.665C29.386 200.381 0 225.282 0 256c0 30.827 29.503 55.62 65.64 55.62 3.521 0 6.975-.248 10.357-.68-31.303-4.165-55.392-27.087-55.392-54.94zM169.15 254.875a41.68 41.68 0 0 0-10.296-1.285c-18.927 0-34.483 12.482-34.483 28.111 0 15.526 15.438 28.111 34.483 28.111 3.577 0 7.015-.465 10.258-1.289-31.985-8.191-32.348-45.387.038-53.648zM148.211 234.38h20.605c-1.548 0-2.003-2.212-.585-2.864 4.584-2.109 12.477-5.487 25.567-10.47.267-.102.521-.179.784-.273-5.123-2.453-12.096-3.264-21.388.273-13.09 4.983-20.983 8.361-25.567 10.47-1.418.652-.964 2.864.584 2.864zM348.93 279.516c-4.253-13.471-2.298-27.161 3.872-38.191l-2.007-6.945c.708-5.887 6.256-11.575 12.075-11.575 2.16 0 4.177.632 5.9 1.721a42.868 42.868 0 0 1 12.28-5.154 42.907 42.907 0 0 0-10.277-1.257c-30.487 0-51.96 31.269-42.448 61.399 5.876 18.648 22.66 32.103 42.448 32.103 3.542 0 6.984-.444 10.288-1.259-15.142-3.743-27.309-15.541-32.131-30.842z" fill="#000000" data-original="#d84848" class="" opacity="1"></path>
                        </g>
                    </svg>