<svg xmlns="http://www.w3.org/2000/svg" version="1.1" xmlns:xlink="http://www.w3.org/1999/xlink" width="100" height="100" x="0" y="0" viewBox="0 0 512.001 512.001" style="enable-background:new 0 0 512 512" xml:space="preserve" class="">
                        <g>
                            <path d="M111.407 267.979c.836 0 1.514.678 1.514 1.514v1.376c0 10.797-.172 20.533-11.806 28.037-11.635 7.368-25.834 7.237-40.72 7.237C25.493 306.143 0 304.829 0 268.767v-25.532c0-32.638 22.756-37.376 60.394-37.376 38.107 0 51.914 3.612 52.344 34.664a1.514 1.514 0 0 1-1.515 1.528H79.018a1.514 1.514 0 0 1-1.514-1.514v-2.176c0-.085-.006-.172-.018-.256-1.258-8.693-9.278-9.347-20.855-9.347-19.504 0-21.386 4.605-21.386 18.688v15.398c0 14.741.856 20.397 21.386 20.397 14.201 0 21.044-.788 21.044-12.372v-1.376c0-.836.678-1.514 1.514-1.514h32.218zM149.843 288.376l-5.964 15.989a1.514 1.514 0 0 1-1.418.985h-32.32a1.514 1.514 0 0 1-1.41-2.064l37.315-95.673a1.514 1.514 0 0 1 1.41-.964h49.947c.621 0 1.179.38 1.408.957l37.812 95.673c.393.993-.34 2.07-1.408 2.07H203.57a1.515 1.515 0 0 1-1.409-.96l-5.918-15.054a1.514 1.514 0 0 0-1.409-.96l-44.991.001zm23.267-61.987h-.342l-14.831 40.743a1.514 1.514 0 0 0 1.422 2.031h27.483a1.514 1.514 0 0 0 1.419-2.041l-15.151-40.733zM295.771 245.341c37.981 2.105 47.392 5.789 47.392 28.425 0 16.322.856 32.378-55.606 32.378-32.152 0-53.705-.51-54.389-31.37a1.512 1.512 0 0 1 1.515-1.535h29.844c.807 0 1.466.639 1.508 1.445.463 8.925 5.577 9.878 21.521 9.878 16.082 0 21.389-.794 21.389-9.085 0-8.552-1.883-8.422-17.966-9.21l-7.527-.397c-31.653-1.712-50.129-1.581-50.129-29.873 0-28.297 20.7-30.139 54.233-30.139 28.061 0 52.014.397 52.014 27.637 0 2.013.345 4.078-1.514 4.078h-29.872a1.518 1.518 0 0 1-1.507-1.435c-.523-8.695-6.111-8.695-19.121-8.695-18.475 0-20.016 2.893-20.016 8.422 0 9.434 6.158 8.246 28.231 9.476zM385.564 305.35h-32.703a1.514 1.514 0 0 1-1.514-1.514v-95.673c0-.836.678-1.514 1.514-1.514h31.19c.836 0 1.514.678 1.514 1.514v97.187h-.001zM393.264 269.951v-27.9c0-30.4 24.637-36.192 59.367-36.192 34.732 0 59.37 5.792 59.37 36.192v27.901c0 30.4-24.637 36.192-59.37 36.192-34.73-.001-59.367-5.793-59.367-36.193zm83.492-2.896v-22.242c0-14.608-6.331-16.056-24.125-16.056s-23.61 1.448-24.122 16.056v22.242c.512 14.741 6.328 16.186 24.122 16.186s24.125-1.445 24.125-16.186z" fill="#000000" data-original="#579add" class="" opacity="1"></path>
                            <path d="M20.605 268.767v-25.532c0-29.676 18.816-36.285 50.523-37.24a372.368 372.368 0 0 0-10.734-.136C22.756 205.859 0 210.596 0 243.235v25.532c0 36.062 25.493 37.376 60.394 37.376 3.467 0 6.894.003 10.263-.079-29.478-.551-50.052-4.906-50.052-37.297zM129.335 303.286l37.315-95.674a1.515 1.515 0 0 1 1.41-.964h-20.605c-.624 0-1.183.383-1.41.964l-37.315 95.674a1.514 1.514 0 0 0 1.41 2.064h20.605a1.514 1.514 0 0 1-1.41-2.064zM253.773 274.773a1.512 1.512 0 0 1 1.515-1.535h-20.605c-.843 0-1.534.692-1.515 1.535.684 30.86 22.236 31.37 54.388 31.37 2.748 0 5.355-.039 7.838-.113-24.969-.619-41.033-4.69-41.621-31.257zM254.443 243.319l.009-.002c-.22-1.471-.538-4.423-.502-5.743l.011.005c-.699-26.886 16.172-31.065 44.455-31.635-3.519-.075-7.152-.084-10.86-.084-33.533 0-54.233 1.842-54.233 30.139 0 23.995 13.308 27.542 36.656 29.111-14.765-7.863-15.536-21.791-15.536-21.791zM371.952 303.836v-95.673c0-.836.678-1.514 1.514-1.514h-20.605c-.836 0-1.514.678-1.514 1.514v95.673c0 .836.678 1.514 1.514 1.514h20.605a1.514 1.514 0 0 1-1.514-1.514zM462.963 282.884c2.869.282 6.264.357 10.272.357 17.794 0 24.125-1.445 24.125-16.186v-22.242c0-14.608-6.331-16.056-24.125-16.056-4.008 0-7.403.076-10.272.356 9.987.966 13.792 4.382 13.792 15.699v22.242c0 11.422-3.805 14.86-13.792 15.83zM413.868 269.951V242.05c0-27.295 19.869-34.748 49.065-35.986a243.266 243.266 0 0 0-10.303-.206c-34.729 0-59.367 5.792-59.367 36.192v27.901c0 30.4 24.637 36.192 59.367 36.192 3.547 0 6.982-.065 10.303-.206-29.196-1.238-49.065-8.69-49.065-35.986z" fill="#000000" data-original="#4987ce" class="" opacity="1"></path>
                        </g>
                    </svg>