<svg xmlns="http://www.w3.org/2000/svg" version="1.1" xmlns:xlink="http://www.w3.org/1999/xlink" width="100" height="100" x="0" y="0" viewBox="0 0 512.001 512.001" style="enable-background:new 0 0 512 512" xml:space="preserve" class="">
                        <g>
                            <path d="M214.592 225.828c19.399 0 32.613 13.401 32.613 31.869v47.546a2.231 2.231 0 0 1-2.231 2.231h-17.589a2.231 2.231 0 0 1-2.231-2.231v-43.461c0-10.619-9.441-16.965-18.564-16.965-11.805 0-18.182 8.741-18.182 16.965v43.461a2.231 2.231 0 0 1-2.231 2.231h-17.584a2.231 2.231 0 0 1-2.231-2.231v-75.837c0-1.232.999-2.231 2.231-2.231h17.588c1.232 0 2.231.999 2.231 2.232l-.004 9.274.004-.004-.004.017c6.425-8.58 16.939-12.866 26.184-12.866" fill="#000000" data-original="#579add" opacity="1" class=""></path>
                            <path d="M236.487 305.244v-43.461c0-10.619-9.441-16.965-18.564-16.965a20.89 20.89 0 0 0-5.784.792c7.037 1.996 13.016 7.725 13.016 16.173v43.461c0 1.232.999 2.231 2.231 2.231h11.333a2.231 2.231 0 0 1-2.232-2.231zM177.695 305.244v-75.837c0-1.232.999-2.231 2.231-2.231h-11.333a2.231 2.231 0 0 0-2.231 2.231v75.837c0 1.232.999 2.231 2.231 2.231h11.333a2.231 2.231 0 0 1-2.231-2.231z" fill="#000000" data-original="#4987ce" class="" opacity="1"></path>
                            <path d="M405.483 227.179h20.292a2.231 2.231 0 0 1 2.063 3.08l-31.202 75.811a2.231 2.231 0 0 1-2.063 1.382h-21.174a2.231 2.231 0 0 1-2.063-1.382l-31.202-75.811a2.231 2.231 0 0 1 2.063-3.08h20.297a2.23 2.23 0 0 1 2.096 1.467l17.303 47.479c.713 1.956 3.479 1.956 4.192 0l17.303-47.479a2.228 2.228 0 0 1 2.095-1.467z" fill="#000000" data-original="#579add" opacity="1" class=""></path>
                            <path d="m382.668 306.07-31.202-75.811a2.231 2.231 0 0 1 2.063-3.08h-11.333a2.231 2.231 0 0 0-2.063 3.08l31.202 75.811a2.231 2.231 0 0 0 2.063 1.382h11.333a2.231 2.231 0 0 1-2.063-1.382z" fill="#000000" data-original="#4987ce" class="" opacity="1"></path>
                            <path d="M158.165 259.658c-1.406-8.011-4.604-15.158-9.353-20.681-7.407-8.602-18.369-13.153-31.717-13.153-24.245 0-42.527 17.886-42.527 41.51 0 24.237 18.325 41.506 44.957 41.506 13.772 0 27.829-6.024 35.524-13.448.99-.955.919-2.557-.172-3.396l-10.659-8.194a2.228 2.228 0 0 0-2.65-.049c-8.476 6.057-13.667 7.54-21.717 7.54-5.928 0-10.855-1.433-14.73-4.023-1.479-.989-1.249-3.236.395-3.918l51.299-21.281c.953-.396 1.529-1.397 1.35-2.413zm-25.857-4.11-33.411 13.861c-1.445.599-3.042-.44-3.091-2.003-.213-6.698 1.76-12.05 4.729-16.037 3.755-5.042 9.736-8.002 16.96-8.002 6.986 0 12.49 3.508 15.836 8.907.733 1.183.263 2.741-1.023 3.274z" fill="#000000" data-original="#579add" opacity="1" class=""></path>
                            <path d="M85.901 267.334c0-21.813 15.591-38.721 37.066-41.188a54.44 54.44 0 0 0-5.872-.322c-24.245 0-42.527 17.886-42.527 41.51 0 24.237 18.325 41.506 44.957 41.506 1.807 0 3.618-.109 5.419-.306-23.389-2.37-39.043-18.804-39.043-41.2z" fill="#000000" data-original="#4987ce" class="" opacity="1"></path>
                            <path d="M72.467 289.459v15.785a2.231 2.231 0 0 1-2.231 2.231H2.231A2.231 2.231 0 0 1 0 305.244v-99.852c0-1.232.999-2.231 2.231-2.231h17.888c1.232 0 2.231.999 2.231 2.231v79.606c0 1.232.999 2.231 2.231 2.231h45.655a2.23 2.23 0 0 1 2.231 2.23z" fill="#000000" data-original="#579add" opacity="1" class=""></path>
                            <path d="M11.333 305.244v-99.852c0-1.232.999-2.231 2.231-2.231H2.231A2.231 2.231 0 0 0 0 205.392v99.852c0 1.232.999 2.231 2.231 2.231h11.333a2.232 2.232 0 0 1-2.231-2.231z" fill="#000000" data-original="#4987ce" class="" opacity="1"></path>
                            <path d="M468.995 225.824c-24.28 0-43.305 18.23-43.305 41.501 0 23.537 18.895 41.501 43.01 41.501 24.28 0 43.301-18.234 43.301-41.501-.001-23.536-18.891-41.501-43.006-41.501zm0 64.108c-12.079 0-21.55-9.932-21.55-22.607 0-13.275 8.941-22.607 21.255-22.607 12.084 0 21.551 9.932 21.551 22.607-.001 13.019-8.938 22.607-21.256 22.607z" fill="#000000" data-original="#579add" opacity="1" class=""></path>
                            <path d="M474.735 289.165c1.781.485 3.647.767 5.592.767 12.318 0 21.255-9.589 21.255-22.607 0-12.675-9.467-22.607-21.55-22.607a22.48 22.48 0 0 0-5.774.758c9.3 2.515 15.991 11.201 15.991 21.848.001 10.889-6.262 19.354-15.514 21.841z" fill="#000000" data-original="#4987ce" class="" opacity="1"></path>
                            <path d="M437.022 267.326c0-21.426 16.132-38.566 37.64-41.152a47.35 47.35 0 0 0-5.667-.35c-24.28 0-43.305 18.23-43.305 41.501 0 23.537 18.895 41.501 43.01 41.501 1.925 0 3.813-.127 5.665-.35-21.342-2.567-37.343-19.494-37.343-41.15z" fill="#000000" data-original="#4987ce" class="" opacity="1"></path>
                            <path d="M299.234 225.824c-24.285 0-43.305 18.23-43.305 41.501 0 23.537 18.89 41.501 43.005 41.501 24.28 0 43.305-18.234 43.305-41.501 0-23.536-18.895-41.501-43.005-41.501zm0 64.108c-12.084 0-21.55-9.932-21.55-22.607 0-13.275 8.937-22.607 21.251-22.607 12.084 0 21.55 9.932 21.55 22.607-.001 13.019-8.938 22.607-21.251 22.607z" fill="#000000" data-original="#579add" opacity="1" class=""></path>
                            <path d="M267.261 267.326c0-21.426 16.129-38.566 37.639-41.152a47.332 47.332 0 0 0-5.666-.35c-24.284 0-43.305 18.23-43.305 41.501 0 23.537 18.89 41.501 43.005 41.501 1.925 0 3.813-.127 5.665-.35-21.341-2.567-37.338-19.494-37.338-41.15z" fill="#000000" data-original="#4987ce" class="" opacity="1"></path>
                            <path d="M304.973 289.165c1.781.485 3.648.767 5.594.767 12.314 0 21.251-9.589 21.251-22.607 0-12.675-9.467-22.607-21.55-22.607-2.028 0-3.953.276-5.773.758 21.237 5.745 21.208 38.114.478 43.689z" fill="#000000" data-original="#4987ce" class="" opacity="1"></path>
                        </g>
                    </svg>