<svg xmlns="http://www.w3.org/2000/svg" version="1.1" xmlns:xlink="http://www.w3.org/1999/xlink" width="100" height="100" x="0" y="0" viewBox="0 0 512 512" style="enable-background:new 0 0 512 512" xml:space="preserve" class="">
                        <g>
                            <path d="M466.75 215.982v9.994h6.83a1.914 1.914 0 0 1 1.639 3.072c-.144.204-18.944 22.312-19.18 22.528-.236.215-.389.163-.563-.072-.174-.236-18.749-22.456-18.749-22.456-1.311-1.608-.287-3.072 1.249-3.072h6.656v-9.994h-55.194v10.015h9.779c4.27 0 7.076 2.693 8.673 4.433 1.28 1.434 29.44 33.362 30.116 34.202.676.839.676.849.676 1.382v15.821a11.269 11.269 0 0 1-.215 2.16 3.45 3.45 0 0 1-2.171 1.925c-.924.116-1.854.174-2.785.174l-9.789-.01V296.1h54.907v-10.015h-10.332a20.299 20.299 0 0 1-2.765-.174 3.413 3.413 0 0 1-2.161-1.925 11.202 11.202 0 0 1-.225-2.161v-15.81c-.061-.52.07-1.044.369-1.474l30.464-34.755c2.796-3.113 4.25-3.788 7.915-3.788H512v-10.015h-45.25zM89.088 250.757a59.383 59.383 0 0 0-9.953-3.471c-6.492-1.587-21.074-3.574-28.047-4.27-7.311-.758-19.999-1.812-25.068-3.379-1.536-.482-4.669-1.966-4.669-5.602 0-2.59 1.434-4.782 4.26-6.553 4.495-2.816 13.568-4.567 23.03-4.567a66.774 66.774 0 0 1 26.685 5.212 29.1 29.1 0 0 1 6.349 3.789 19.093 19.093 0 0 1 6.257 10.465h10.107v-27.453H86.774v3.184c0 1.024-1.024 2.376-3.072 1.26-5.079-2.642-19.354-8.356-36.854-8.428-9.922 0-21.197 1.864-30.72 6.144C7.24 221.061 0 227.441 0 238.019a21.687 21.687 0 0 0 5.888 14.909c2.57 2.376 6.717 6.41 17.551 8.786 4.843 1.024 15.196 2.673 25.508 3.758 10.312 1.086 20.306 2.048 24.402 3.144 3.256.829 8.735 1.956 8.735 8.1s-5.765 7.987-6.768 8.387c-1.004.4-7.926 3.574-20.357 3.574a86.573 86.573 0 0 1-24.238-4.168c-4.639-1.659-9.503-3.84-14.039-9.379a16.108 16.108 0 0 1-2.918-8.889H2.499v31.539h12.513v-4.27a1.783 1.783 0 0 1 2.704-1.536 98.589 98.589 0 0 0 18.309 5.919c6.574 1.372 10.824 2.365 18.995 2.365a81.047 81.047 0 0 0 25.457-3.594 44.428 44.428 0 0 0 15.124-7.465 20.725 20.725 0 0 0 8.1-16.599 23.228 23.228 0 0 0-6.543-16.323 28.801 28.801 0 0 0-8.07-5.52zM229.765 226.785c-12.012-10.895-27.73-15.841-47.36-15.841-17.746 0-36.587 6.144-47.237 15.821a39.332 39.332 0 0 0-12.851 29.174 38.76 38.76 0 0 0 12.851 29.276c11.469 10.312 28.672 15.841 47.237 15.841 18.596 0 36.168-5.468 47.36-15.841a40.612 40.612 0 0 0 12.677-29.276 38.967 38.967 0 0 0-12.677-29.154zm-22.006 52.664c-6.38 6.349-15.514 9.749-25.354 9.749-9.769 0-19.098-3.471-25.395-9.749a32.943 32.943 0 0 1-9.216-23.552c0-9.032 3.144-17.541 9.216-23.552 6.298-6.226 15.688-9.687 25.395-9.687s19.057 3.492 25.354 9.687c6.093 6.001 9.277 14.479 9.277 23.552.001 9.504-2.897 17.204-9.277 23.552zM332.667 225.987h10.342c4.751 0 5.55 1.833 5.611 6.226l.563 33.444-55.05-49.674H254.77v10.015h8.765c6.328 0 6.758 3.522 6.758 6.594v46.868c0 2.806.164 6.656-3.871 6.656h-10.813v10.004h46.172v-10.004h-11.264c-4.495 0-4.7-2.059-4.751-6.431v-40.151l63.416 56.586h16.128l-.85-63.908c.082-4.67.369-6.226 5.202-6.226h10.107v-10.005h-47.104v10.006z" fill="#000000" opacity="1" data-original="#000000"></path>
                        </g>
                    </svg>