<svg id="svg" version="1.1" width="208" height="248" viewBox="0 0 208 248" xmlns="http://www.w3.org/2000/svg"><path d="M55.007 16.250 C 55.030 20.398,59.659 35.697,62.952 42.509 C 67.572 52.066,73.442 59.022,80.970 63.860 L 86.500 67.415 80.000 69.281 C 36.398 81.795,8.004 122.929,12.905 166.481 C 14.221 178.175,17.440 189.974,21.525 198.077 C 28.319 211.553,40.464 225.687,51.862 233.380 C 57.306 237.055,59.000 237.705,59.000 236.119 C 59.000 235.634,60.379 225.846,62.065 214.369 C 63.751 202.891,65.792 188.550,66.602 182.500 C 67.411 176.450,69.070 164.995,70.289 157.045 C 72.398 143.281,72.622 142.561,74.981 142.004 C 76.960 141.537,77.601 140.582,78.169 137.256 C 79.056 132.063,80.222 129.867,84.764 124.839 C 90.247 118.770,95.129 116.681,104.000 116.607 C 109.895 116.558,112.516 117.040,116.247 118.860 C 122.630 121.974,127.643 128.067,129.905 135.465 C 131.493 140.655,132.118 141.544,134.373 141.816 C 136.105 142.025,137.164 142.874,137.493 144.316 C 138.263 147.696,145.989 206.344,145.702 206.632 C 145.562 206.771,144.007 205.974,142.246 204.859 L 139.045 202.832 141.043 198.916 L 143.041 195.000 128.270 194.911 C 120.147 194.862,111.175 194.620,108.333 194.373 C 105.490 194.126,102.925 194.312,102.632 194.786 C 102.011 195.792,120.474 229.325,121.913 229.804 C 122.446 229.982,123.596 228.749,124.467 227.064 C 125.338 225.379,126.506 224.000,127.061 224.000 C 127.617 224.000,132.956 226.925,138.926 230.500 C 144.896 234.075,150.075 237.000,150.435 237.000 C 152.697 237.000,166.602 226.079,171.637 220.347 C 187.966 201.759,194.741 185.324,195.688 162.000 C 196.794 134.790,187.618 111.272,168.573 92.500 C 156.808 80.904,142.801 72.991,126.524 68.745 L 121.547 67.446 127.137 64.292 C 137.038 58.704,146.166 45.588,150.306 31.000 C 154.007 17.960,154.250 16.033,152.284 15.279 C 150.047 14.420,136.067 19.279,128.211 23.646 C 120.101 28.154,109.716 37.889,106.972 43.557 C 105.789 46.001,104.680 48.000,104.506 48.000 C 104.333 48.000,102.838 45.603,101.184 42.673 C 95.541 32.674,80.714 21.920,66.229 17.320 C 58.006 14.709,54.997 14.422,55.007 16.250 M96.611 122.003 C 88.900 125.014,83.851 130.817,82.473 138.250 L 81.777 142.000 103.830 142.000 C 115.958 142.000,126.078 141.662,126.318 141.250 C 126.557 140.838,126.137 138.420,125.384 135.878 C 123.466 129.405,117.509 123.526,110.873 121.555 C 104.275 119.596,102.644 119.647,96.611 122.003 M100.505 178.250 C 100.268 178.938,100.394 181.975,100.787 185.000 C 101.293 188.905,101.935 190.500,103.000 190.500 C 104.872 190.500,105.557 183.595,104.073 179.692 C 102.995 176.856,101.233 176.144,100.505 178.250 M112.136 180.336 C 110.457 182.360,107.934 190.084,108.600 191.162 C 109.901 193.267,112.311 191.225,114.103 186.500 C 115.145 183.750,115.999 180.938,115.999 180.250 C 116.000 178.596,113.535 178.651,112.136 180.336 M86.500 184.000 C 85.575 185.496,86.538 186.539,91.567 189.487 C 96.172 192.185,99.425 192.270,98.425 189.665 C 97.953 188.436,89.185 183.000,87.674 183.000 C 87.368 183.000,86.840 183.450,86.500 184.000 M90.373 197.918 C 85.593 200.089,84.205 201.758,86.462 202.624 C 88.616 203.450,97.421 199.539,97.823 197.576 C 98.258 195.458,95.512 195.584,90.373 197.918 M97.084 205.894 C 93.794 210.048,93.101 213.000,95.416 213.000 C 97.177 213.000,103.000 205.787,103.000 203.606 C 103.000 200.810,100.277 201.863,97.084 205.894 " stroke="none" fill="black" fill-rule="evenodd"/></svg>