<svg id="svg" version="1.1" width="235" height="284" viewBox="0 0 235 284" xmlns="http://www.w3.org/2000/svg"><path d="M103.893 29.310 C 92.015 33.619,83.581 41.023,78.047 52.000 C 73.715 60.594,72.899 64.129,72.692 75.190 L 72.500 85.500 61.660 86.000 C 46.953 86.678,47.584 85.817,42.219 112.562 C 39.909 124.078,34.147 152.625,29.415 176.000 C 16.978 237.434,17.639 233.246,19.417 239.362 C 21.156 245.344,25.639 250.452,31.500 253.129 C 35.269 254.851,40.259 254.957,118.054 254.978 L 200.607 255.000 205.919 252.353 C 209.695 250.471,212.060 248.397,214.103 245.177 C 219.504 236.660,219.745 239.193,208.087 182.000 C 204.219 163.025,200.607 145.475,200.060 143.000 C 199.513 140.525,198.782 136.700,198.436 134.500 C 197.920 131.221,192.443 103.677,190.376 93.968 C 190.080 92.575,189.000 90.325,187.978 88.968 C 186.232 86.651,185.449 86.479,175.197 86.165 L 164.275 85.830 163.728 75.165 C 162.788 56.858,157.329 45.020,145.822 36.340 C 137.419 30.001,131.014 27.761,120.000 27.306 C 111.857 26.970,109.556 27.256,103.893 29.310 M129.500 47.387 C 141.470 53.056,145.867 62.403,145.193 80.750 L 145.000 86.000 117.914 86.000 L 90.828 86.000 91.164 74.666 C 91.477 64.103,91.704 63.006,94.500 58.514 C 100.171 49.404,107.820 45.114,118.500 45.054 C 122.790 45.029,125.925 45.694,129.500 47.387 M87.506 103.252 C 89.262 104.762,90.308 106.877,90.683 109.676 C 91.159 113.225,90.865 114.226,88.708 116.383 C 83.575 121.516,76.465 120.608,73.541 114.446 C 69.276 105.458,80.040 96.830,87.506 103.252 M160.694 103.413 C 163.024 105.418,163.500 106.619,163.500 110.502 C 163.500 114.217,163.012 115.572,161.124 117.101 C 157.448 120.077,154.122 120.521,150.421 118.528 C 146.093 116.197,144.402 112.162,145.918 107.781 C 148.257 101.021,155.443 98.897,160.694 103.413 M103.224 151.982 C 108.678 154.023,115.440 159.661,116.522 163.070 C 117.304 165.535,118.692 165.545,119.471 163.092 C 120.611 159.498,128.605 153.195,134.087 151.567 C 144.127 148.585,151.341 149.907,158.258 155.995 C 166.548 163.293,168.576 174.688,163.543 185.692 C 160.315 192.750,157.788 195.522,147.705 203.061 C 135.428 212.241,122.413 216.339,112.280 214.213 C 101.221 211.893,85.485 202.873,78.377 194.777 C 65.514 180.126,67.976 159.577,83.459 152.367 C 89.701 149.460,96.148 149.335,103.224 151.982 " stroke="none" fill="black" fill-rule="evenodd"/></svg>