<svg id="svg" version="1.1" width="209" height="236" viewBox="0 0 209 236" xmlns="http://www.w3.org/2000/svg"><path d="M97.362 23.494 C 83.099 26.596,71.895 35.364,65.398 48.509 C 62.293 54.792,61.588 57.396,61.206 64.006 L 60.746 71.951 45.123 72.225 L 29.500 72.500 29.500 127.500 L 29.500 182.500 84.500 182.500 L 139.500 182.500 139.768 158.750 L 140.036 135.000 150.518 135.000 L 161.000 135.000 161.000 169.500 L 161.000 204.000 94.965 204.000 L 28.930 204.000 29.215 214.250 L 29.500 224.500 105.500 224.500 L 181.500 224.500 181.500 169.500 L 181.500 114.500 126.500 114.500 L 71.500 114.500 71.232 138.250 L 70.964 162.000 60.482 162.000 L 50.000 162.000 50.000 127.507 L 50.000 93.014 115.750 92.757 L 181.500 92.500 181.500 82.500 L 181.500 72.500 167.250 72.223 L 153.000 71.945 153.000 67.201 C 153.000 60.004,149.671 49.491,145.452 43.366 C 138.251 32.910,128.750 26.332,116.769 23.508 C 109.242 21.733,105.471 21.730,97.362 23.494 M117.258 45.731 C 119.324 46.552,122.952 49.377,125.319 52.010 C 129.848 57.047,132.000 62.316,132.000 68.366 L 132.000 72.000 106.371 72.000 L 80.742 72.000 81.426 66.844 C 82.580 58.147,86.868 51.333,93.713 47.322 C 101.359 42.841,108.725 42.344,117.258 45.731 M119.000 148.572 L 119.000 162.000 105.500 162.000 L 92.000 162.000 92.000 148.492 L 92.000 134.984 105.500 135.064 L 119.000 135.144 119.000 148.572 " stroke="none" fill="black" fill-rule="evenodd"/></svg>