<svg id="svg" version="1.1" width="224" height="234" viewBox="0 0 224 234" xmlns="http://www.w3.org/2000/svg"><path d="M97.383 26.890 C 87.677 29.390,77.828 37.677,73.742 46.783 C 72.072 50.503,71.533 54.089,71.192 63.750 L 70.759 76.000 59.438 76.000 C 53.212 76.000,47.872 76.399,47.570 76.886 C 47.269 77.374,52.231 81.684,58.596 86.466 C 64.962 91.247,71.970 96.785,74.169 98.772 C 78.324 102.525,94.636 124.973,111.397 150.000 C 127.007 173.311,130.064 177.479,131.831 177.861 C 139.269 179.467,158.991 185.843,166.660 189.119 C 181.268 195.361,197.613 205.214,201.874 210.348 C 204.500 213.512,207.000 211.781,207.000 206.799 C 207.000 205.678,204.601 200.203,201.669 194.631 C 186.171 165.180,175.214 130.168,170.018 93.500 C 167.628 76.634,166.955 76.000,151.430 76.000 L 140.306 76.000 139.698 64.658 C 138.909 49.925,136.584 43.444,129.596 36.492 C 122.784 29.716,116.381 26.790,107.500 26.397 C 103.650 26.227,99.097 26.449,97.383 26.890 M116.896 38.331 C 122.198 41.084,127.457 47.384,128.954 52.775 C 129.523 54.824,129.991 60.857,129.994 66.182 C 130.000 75.616,129.930 75.913,127.250 77.779 C 123.032 80.717,118.678 81.877,109.191 82.592 C 99.341 83.335,90.580 81.950,84.787 78.734 C 81.611 76.971,80.976 76.026,80.403 72.202 C 79.473 66.003,80.518 55.246,82.539 50.193 C 84.671 44.866,91.904 38.421,97.909 36.497 C 103.847 34.595,111.039 35.290,116.896 38.331 M80.834 80.839 C 82.622 86.809,87.145 92.220,93.077 95.486 C 106.583 102.922,124.633 96.166,129.775 81.750 C 131.327 77.399,131.744 77.000,134.735 77.000 C 137.461 77.000,137.996 77.372,137.978 79.250 C 137.909 86.372,129.689 97.285,120.834 102.015 C 115.020 105.120,113.761 105.402,105.500 105.449 C 97.607 105.494,95.799 105.156,90.797 102.700 C 83.651 99.190,76.700 91.623,74.478 84.933 C 72.464 78.870,73.014 77.000,76.810 77.000 C 79.276 77.000,79.847 77.545,80.834 80.839 M41.464 85.690 C 40.741 90.831,38.037 106.369,35.566 119.573 C 31.712 140.174,23.362 164.298,11.933 187.848 C 2.684 206.909,2.253 209.453,7.400 214.600 L 10.800 218.000 104.466 218.000 C 196.205 218.000,203.217 217.778,201.459 214.934 C 200.385 213.195,186.661 204.358,179.205 200.603 C 156.396 189.117,118.331 182.021,79.436 182.004 L 71.373 182.000 71.273 167.226 C 71.111 143.120,66.966 119.376,60.042 102.900 C 56.195 93.746,47.423 81.631,44.320 81.190 C 42.414 80.918,42.056 81.482,41.464 85.690 M161.760 125.750 C 163.961 136.666,164.230 141.441,162.900 146.025 L 161.603 150.500 160.909 141.378 C 160.527 136.362,159.909 130.860,159.534 129.153 L 158.852 126.049 142.676 125.774 L 126.500 125.500 126.184 122.750 L 125.867 120.000 143.234 120.000 L 160.600 120.000 161.760 125.750 " stroke="none" fill="black" fill-rule="evenodd"/></svg>