<svg id="svg" version="1.1" width="318" height="187" viewBox="0 0 318 187" xmlns="http://www.w3.org/2000/svg"><path d="M145.263 21.514 C 136.377 23.445,127.490 28.476,120.157 35.728 L 113.815 42.000 88.489 42.000 C 74.560 42.000,62.452 42.273,61.582 42.607 C 59.649 43.349,59.269 54.590,61.156 55.219 C 64.276 56.259,51.714 104.180,43.314 123.286 C 39.829 131.214,39.805 131.367,40.167 143.387 C 40.475 153.624,40.891 156.208,42.853 160.069 C 48.610 171.401,62.727 175.924,73.842 169.996 C 79.487 166.985,80.811 165.665,83.960 159.907 L 86.883 154.562 87.971 157.425 C 91.312 166.212,101.115 172.980,110.500 172.980 C 120.059 172.980,130.572 165.539,132.637 157.311 C 133.453 154.060,134.392 154.431,135.899 158.598 C 136.615 160.578,138.981 163.925,141.158 166.037 C 153.045 177.573,171.914 173.619,178.828 158.144 L 180.775 153.787 181.891 157.171 C 185.928 169.401,201.893 176.411,213.601 171.094 C 218.867 168.702,224.482 163.076,226.118 158.549 C 226.824 156.597,227.671 155.000,228.000 155.000 C 228.329 155.000,229.184 156.621,229.901 158.601 C 232.593 166.048,242.848 173.000,251.141 173.000 C 256.544 173.000,264.778 169.077,268.498 164.731 C 273.225 159.209,275.001 152.744,274.998 141.068 C 274.995 132.179,274.721 130.861,271.126 122.500 C 261.406 99.894,250.726 57.874,253.894 54.706 C 255.680 52.920,255.303 43.330,253.418 42.607 C 252.548 42.273,240.228 42.000,226.039 42.000 L 200.241 42.000 193.855 35.750 C 180.281 22.465,163.505 17.551,145.263 21.514 M166.541 44.880 C 170.299 46.587,176.000 52.078,176.000 53.991 C 176.000 54.452,173.694 56.247,170.875 57.982 L 165.750 61.135 162.995 58.495 C 159.406 55.057,153.682 55.219,153.177 58.774 C 152.910 60.658,153.682 61.396,157.677 63.077 C 175.019 70.372,177.500 72.752,177.500 82.099 C 177.500 89.076,175.373 92.483,168.980 95.750 C 163.326 98.639,153.367 98.804,147.429 96.107 C 143.522 94.333,136.705 87.386,137.254 85.739 C 137.399 85.303,139.817 83.633,142.627 82.028 L 147.735 79.111 149.890 81.589 C 154.080 86.407,161.807 87.097,164.078 82.855 C 165.669 79.881,163.917 78.470,154.917 75.472 C 145.821 72.443,141.586 68.891,139.986 62.947 C 138.808 58.572,139.827 53.099,142.538 49.242 C 146.684 43.342,158.450 41.204,166.541 44.880 M106.000 58.500 C 105.116 63.806,105.557 82.245,106.778 91.000 C 108.872 106.018,117.857 118.866,129.661 123.719 C 132.956 125.074,133.993 126.039,133.996 127.750 L 134.000 130.000 110.933 130.000 C 89.424 130.000,87.902 129.882,88.407 128.250 C 90.002 123.101,94.134 103.985,95.919 93.500 C 97.461 84.439,101.000 57.756,101.000 55.190 C 101.000 55.012,102.237 55.010,103.750 55.184 C 106.203 55.466,106.446 55.824,106.000 58.500 M214.228 61.000 C 218.552 93.684,222.240 114.834,225.511 125.702 L 226.804 130.000 204.012 130.000 L 181.219 130.000 180.800 126.409 C 180.404 123.021,180.671 122.632,185.524 119.528 C 190.930 116.070,194.225 112.498,196.619 107.500 C 197.409 105.850,199.633 102.025,201.560 99.000 C 206.633 91.038,209.000 82.492,209.000 72.138 C 209.000 67.380,208.563 61.963,208.029 60.101 C 206.823 55.895,207.450 54.800,210.844 55.193 C 213.254 55.472,213.567 56.010,214.228 61.000 " stroke="none" fill="black" fill-rule="evenodd"/></svg>