<svg id="svg" version="1.1" width="223" height="286" viewBox="0 0 223 286" xmlns="http://www.w3.org/2000/svg"><path d="M126.500 46.618 C 123.255 47.816,121.706 47.875,118.290 46.929 C 104.905 43.221,90.639 54.556,79.931 77.406 C 77.392 82.825,75.325 86.000,74.338 86.000 C 73.477 86.000,69.423 88.087,65.330 90.638 C 57.914 95.261,57.865 95.275,51.122 94.648 L 44.356 94.019 41.796 102.760 C 40.389 107.567,36.670 121.175,33.533 133.000 C 30.396 144.825,25.875 161.700,23.487 170.500 C 8.446 225.922,5.000 238.904,5.000 240.152 C 5.000 241.205,13.095 242.968,37.750 247.282 C 55.763 250.435,90.241 256.463,114.370 260.679 L 158.239 268.344 170.509 262.232 L 182.778 256.121 182.940 226.842 C 183.030 210.739,183.325 197.342,183.597 197.070 C 183.869 196.798,185.083 197.204,186.295 197.972 C 191.473 201.251,194.831 202.427,200.111 202.812 C 205.313 203.190,205.969 202.987,209.111 200.018 C 211.247 198.000,211.760 197.127,210.500 197.657 C 209.400 198.119,205.776 198.480,202.446 198.459 C 194.827 198.410,190.089 195.785,177.909 184.864 C 173.085 180.539,168.391 177.000,167.477 177.000 C 166.055 177.000,149.533 180.930,137.919 184.030 L 134.338 184.986 133.148 197.146 C 131.840 210.520,130.161 215.469,124.903 221.458 C 116.065 231.523,100.518 231.486,92.145 221.379 C 88.052 216.439,86.276 210.055,85.500 197.500 C 85.160 192.000,84.716 185.700,84.513 183.500 C 82.825 165.182,82.797 161.293,84.334 158.322 C 86.528 154.078,91.978 149.556,97.385 147.491 C 103.465 145.169,114.904 145.807,121.117 148.814 L 125.524 150.948 137.489 148.687 C 149.334 146.448,149.480 146.387,152.071 142.573 C 155.694 137.237,159.239 135.565,167.000 135.532 C 177.058 135.490,181.664 138.290,192.000 150.732 C 196.675 156.360,200.664 160.480,200.865 159.889 C 201.588 157.754,193.394 143.680,188.688 138.974 L 183.876 134.162 184.077 125.020 C 184.188 119.992,183.878 115.521,183.389 115.085 C 182.900 114.649,178.396 113.257,173.380 111.992 L 164.260 109.692 163.637 103.096 C 163.295 99.468,163.005 94.475,162.994 92.000 C 162.961 84.710,159.372 69.393,156.008 62.188 C 149.236 47.685,138.687 42.118,126.500 46.618 M138.137 51.021 C 149.082 54.061,156.794 72.565,157.302 97.000 L 157.500 106.500 154.000 106.308 C 152.075 106.202,148.700 105.526,146.500 104.806 L 142.500 103.497 141.883 93.353 C 140.883 76.900,137.019 64.153,130.330 55.241 C 128.557 52.878,128.244 51.868,129.192 51.570 C 129.911 51.344,131.175 50.933,132.000 50.658 C 134.199 49.925,134.187 49.924,138.137 51.021 M111.580 58.454 C 105.785 65.570,102.956 70.540,98.466 81.500 C 96.438 86.450,94.638 90.653,94.467 90.839 C 93.908 91.448,82.923 88.685,82.375 87.798 C 82.082 87.323,83.156 84.137,84.762 80.718 C 92.931 63.321,103.048 53.138,112.262 53.040 L 116.023 53.000 111.580 58.454 M124.751 58.250 C 127.840 61.560,131.604 69.610,133.496 76.951 C 135.205 83.581,136.998 100.883,136.038 101.476 C 135.369 101.890,102.230 93.563,101.453 92.787 C 100.552 91.885,106.613 77.090,110.731 70.138 C 114.637 63.545,120.599 56.000,121.904 56.000 C 122.315 56.000,123.596 57.013,124.751 58.250 M166.152 143.885 C 162.592 146.141,168.398 151.928,172.187 149.900 C 174.520 148.651,174.475 147.475,172.000 145.000 C 169.841 142.841,168.271 142.542,166.152 143.885 M179.690 150.154 C 177.289 151.497,177.598 153.690,180.451 155.560 C 183.378 157.478,187.000 156.646,187.000 154.055 C 187.000 150.950,182.530 148.564,179.690 150.154 M95.502 151.575 C 91.467 153.680,89.084 155.936,87.342 159.305 C 86.068 161.769,86.085 164.662,87.477 182.807 C 89.175 204.941,89.980 210.349,92.451 216.243 C 94.703 221.612,100.639 225.259,107.810 225.678 L 113.500 226.011 108.000 224.077 C 100.982 221.610,95.616 215.864,94.131 209.228 C 92.694 202.803,90.567 165.122,91.393 160.720 C 91.832 158.379,93.401 155.967,96.031 153.591 C 100.339 149.699,100.190 149.131,95.502 151.575 M161.200 154.200 C 159.491 155.909,159.710 157.427,161.960 159.464 C 163.293 160.670,164.731 161.033,166.460 160.599 C 169.659 159.796,169.823 156.690,166.777 154.557 C 164.108 152.687,162.797 152.603,161.200 154.200 M102.955 156.835 C 100.951 158.458,100.816 159.033,101.785 161.813 C 102.983 165.249,102.882 165.392,98.506 166.442 C 92.780 167.816,91.305 171.156,94.961 174.464 C 96.507 175.864,97.861 176.098,101.368 175.572 C 105.786 174.910,105.821 174.928,107.005 178.515 C 108.407 182.764,111.685 184.451,115.626 182.952 C 118.099 182.012,118.214 181.673,117.613 177.139 L 116.974 172.324 120.987 171.122 C 124.482 170.075,125.000 169.542,125.000 166.995 C 125.000 163.254,122.145 161.631,117.073 162.488 C 113.547 163.083,113.209 162.919,112.010 160.025 C 110.804 157.114,108.350 155.000,106.177 155.000 C 105.651 155.000,104.202 155.826,102.955 156.835 M174.667 160.667 C 173.235 162.098,174.115 165.030,176.433 166.548 C 180.721 169.358,185.348 164.748,181.800 161.200 C 180.517 159.917,175.772 159.562,174.667 160.667 M170.000 172.892 C 170.000 175.226,189.018 191.201,195.057 193.941 C 199.727 196.059,207.000 196.704,207.000 195.000 C 207.000 194.450,206.213 193.990,205.250 193.978 C 201.362 193.929,194.963 189.854,185.124 181.158 C 178.247 175.080,173.961 172.000,172.381 172.000 C 171.071 172.000,170.000 172.402,170.000 172.892 " stroke="none" fill="black" fill-rule="evenodd"/></svg>