<svg xmlns="http://www.w3.org/2000/svg" version="1.1" viewBox="0 0 1953 1393" width="1280" height="1280">
<path transform="translate(506,255)" d="m0 0h147l13 3 11 6 7 6 6 9 5 12 6 28 5 23h577l38 1 10 2 12 6 6 5 6 10 3 14-3 15-9 31-10 34-7 25-13 45-12 42-7 24-10 36-12 41-7 25-6 17-5 12-4 11-5 17-4 12-3 11-2 9-4 5-10 6-9 4-11 2h-315l-57-1h-18l-5 1h-33l-11-2-14-7-8-9-6-13-5-19-10-44-6-28-14-60-3-15-2-6-3-16-12-52-4-19-7-29-18-81-11-48-8-38-1-1h-130l-12-2-10-5-5-6-4-10v-13l4-10 5-7 14-7zm310 140-3 2 2 14 5 28 3 15 1 1h115l1-1-1-26-2-32-1-1zm159 0-1 1 1 28 3 30 1 1h120l2-5 5-50-1-5zm171 0-3 2-5 45v12l1 1h133l4-9 6-21 8-24-1-5-40-1zm-426 1-1 5 12 51 2 3h51l1-1v-9l-9-45-2-4zm22 95-1 5 11 48 3 10 1 1 10 1h37l1-1-1-11-10-49-2-4zm89 0-1 1 1 10 8 42 2 10 1 1 17 1h78l7-2v-19l-2-38-2-6zm150 0-1 1v15l3 48 1 1h99l7-2 2-17 3-35v-10l-1-1zm153 0-2 7-5 52 1 4 3 2h111l4-5 12-42 3-12v-5l-1-1zm-369 101-1 1 1 10 9 38 4 16 3 3 4 1h37l1-1v-8l-11-55-5-4-25-1zm97 0-13 1-1 1 1 12 10 50 3 5h88l1-1-2-39-2-27-1-1-7-1zm127 0-4 2v18l3 47 2 2h88l2-3 3-35 2-22v-7l-1-1-26-1zm136 0-3 3-6 57v8l1 1h96l3-3 7-25 10-35-1-5-69-1zm-338 103-1 1 1 10 7 31 3 5h393l4-10 7-25 2-6v-5l-1-1h-147l-8 1-193-1z" fill="#6366f1"/>
<path transform="translate(1556,722)" d="m0 0h2v38l-1 18-4 28-7 33-11 38-13 33-5 8-36 26-17 12-28 19-14 10-16 11-16 12-17 12-5 4h4l16-8 15-5 26-11 25-12 20-11 25-15 27-18 10-8 12-8 16-12 17-12 12-9h2l-2 5-6 8-11 18-13 17-11 13-9 10-9 8-4 6-5 5v2l5-3 15-12 9-7 14-11 11-9 13-12 8-7 22-22 2 2-7 19-7 16-6 9-7 11-7 9-5 6-13 10-31 21-16 12-18 13-19 14-18 13-12 9-16 10v2l16-6 26-9 24-10 9-4 16-8 17-8 9-5-1 6-10 20-10 14-9 11-28 28-11 9-11 10-11 9-14 12-11 8-10 4-18 4-31 5-2 1-53 6-16 2-15 8-10 4-17 8-9 4-4 2-12 2v1l40-1 36-2 32-3 60-9 27-2h32v2l-27 13-26 10-36 12-25 7-19 4-12 2-29 2h-55l-63-3-12-1h-17l-32 13-17 7v2l34 3 16 1h59l31-2 55-5 19-1h17v2l-20 9-36 12-31 8-39 7-17 2-36 2h-16l-8-1v2l31 9 29 9 21 9 13 8 2 4-4 1-26-3-36-6-39-8-25-7-11-5-25-1-32-4h-6l3 2 5 3 13 4 21 8 71 19v3l-15 2h-51l-35-4-28-5-25-6-23-6-11-4 7 8 8 10 7 7v3l-16 1-28-2-25-4-36-9-19-6-13-4-17-7-7 1-26 7-16 4-27 7-17 4-19 3h-4l2-4 8-7 10-6 29-13 15-6 1-2-9-1-41-10-11-3-14-4-43-8-29-6-15-4-8-2v-2l36-5 5-1 32-3 16-2v-2h-17l-17-3-18-5-15-5-20-8-7-2-5-3-25-12-14-8-8-5-32-9-10-3-8-3-27-8-7-2v-2l11-1h33l52 2 75 1h90l62-2 39-3 45-4 18-3 23-3 30-6 26-5 26-6 63-18 18-6 3-2 9-2 16-6 24-8 19-7 20-8 20-7 30-13 10-4 28-14 7-3 29-14 22-12 30-16 9-6 26-16 22-14 11-8 14-11 11-7 12-10 9-7 13-11 45-45 5-9 5-8 8-16 14-35 8-24 8-33zm-112 300-10 4-17 5-16 4-11 4-17 5-108 36-72 23-24 7-43 13-28 9-35 11-12 5-18 6-14 4-29 7-3 3 3 1 12-2 17-3 28-3 40-5 19-3 34-6 28-6 56-14 29-9 21-7 10-3 27-10 16-7 9-3 29-14 17-8 23-13 13-8 5-4 22-14 3-4zm-63 77-19 7-13 4-12 4-88 31-17 5-61 21-10 4 1 2 20-3 29-4 1 1-5 1-32 14-20 8-29 11-48 17-48 15-27 8-44 11-36 8-14 3-10 2-61 8-20 2-34 2v3l23 3 24 4 23 2h35l24-2 35-5 39-8 29-7 18-5 22-7 29-9 21-8 32-12 22-9 3-2 9-3 15-6 27-12 20-9 5-4 10-4 40-20 26-14 20-12 19-12 13-10 16-11 1-3zm74 19-10 7-17 8-18 10-14 8v3l8-4 23-11 18-11 10-7 2-2zm-396 67-17 3-54 3-40 2-74 5-13 1-4 1-19 1-60 5-28 2h-17l-6 1-56 3-54 1v2l17 3 24 5 34 5 32 3 16 1h86l34-2 17-2 21-2 27-4 9-2 20-3 23-5 11-2 15-4 25-7 20-7 16-4 1-3z" fill="#6366f1"/>
<path transform="translate(1468,596)" d="m0 0h2l7 18 7 23 5 26 1 10v28l-2 13-5 22-6 20-15 36-8 16-8 14-3 5-2 5h2l9-11 11-13 14-19 11-16 11-17 9-14 14-22 6-9 6-10 8-12h2v6l-2 9-4 20-5 19-9 30-10 29-11 28-13 31-6 16-3 7-11 8-23 15-38 24-9 6-26 15-23 13-13 8-7 4-41 21-38 19-20 9-15 7-27 12-12 5-28 11-7 3-13 4-6 3-12 3-20 6-7 1-30 1h-32l-36-2-48-5-10-3 9 4v2l5 1 18 8 27 8 12 3 24 4v3l-12 3-26 8-32 8-56 11-50 8-14 2-57 5-23 2-43 2-63 2h-63l-75-1-22-1-13-7-11-7-19-14-13-10-13-11-11-10-5-5-10-11-7-11-8-15-2-5v-3l5 2 10 7 20 12 9 6 25 14 32 18 16 8 25 12 25 9 7 2 8 3 23 5 18 2 33 1h14l-27-9-12-5-15-6-15-7-16-8-11-4-8-5-25-13-19-10-9-5-5-4-1 1 7 8 8 7 8 8 8 7 4 3v2l-10-3-32-15-15-8-17-12-12-11-11-11-7-8-7-10-11-10-10-8-13-12-14-15-9-11-12-15-13-18-9-15-10-19v-2l4 2 8 7 14 12 14 11 21 16 16 12 18 13 11 7 26 17 13 8 16 9 15 9 40 20 36 15 16 6 22 6 32 7 36 5 30 3 9 1 2 1h9l-1-2-16-3-12-4-44-17-22-8-17-7-10-3-12-6-41-18-23-11-16-8-25-13-23-13-18-11-22-14-11-8-23-16-19-14-11-7-6-7-12-20-14-23-8-14-9-17-4-14-1-6v-23l3-21 1-2h2l7 16 10 18 17 28 3 2-2-12-2-8-5-34-2-30v-31l-5 5-10 12-5 8-4-1-16-3-1-3 10-18 8-12 9-12 9-11 9-10 18-18 17-13 22-13 9-4h2l-2 4-9 10-13 18-8 14-5 11-5 17-2 12-1 11v38l2 20 6 36 9 39 11 33 10 24 13 20 9 11 11 12 7 10-1-3-4-9-5-8-3-10-10-28-12-36-10-40-5-32-2-12-1-19-1-42h2l4 23 9 36 13 37 8 19 11 24 10 18 10 15 9 11 12 12 5 4h2l-1-5-11-22-9-21-8-16-7-17-9-22-11-27-5-15-11-31-6-26v-3l3 1 20 30 17 25 12 17 14 18 10 13 8 8 11 14 2 1-3-6-10-17-3-5-2-6-9-19-8-21-9-34-3-19-1-11v-28l3-24 4-18 4-12h2l2 28 4 28 6 29 7 26 7 20 12 30 10 19 11 20 22 33 9 12 8 10 13 15 9 10 26 26 8 7 14 12 11 8 14 10 19 12 11 7 23 12 30 13 33 11 25 7 23 5 56 11v2l-14 1h-15l-41-3-46-6-36-6-30-7-32-10-23-9-17-7-10-4-19-9-20-8-5-3-37-17-26-11-18-8-5-3 2 4 14 13 14 11 12 10 17 12 20 13 15 8 15 9 32 16 33 14 19 7 17 6 26 9 14 5 42 11 29 6 27 4 27 3 50 3h16v-2l-9-1-9-3-21-5-6-2-14-3-17-4-18-5-15-4v-2h15l17 1h25l34-2 32-3 9-3 16-11 10-8 12-11 7-7 7-8 18-21h2l-2 10-5 17-8 18-6 12v3l15-1 40-6 30-6 41-11 39-13 16-4 18-7 10-4 13-4 19-8 12-5 24-11 16-8 24-13 6-4 11-6 16-10 17-12 14-11 12-11 8-7 15-14 15-16 3-3v-2l-9 3-6 5-17 10-22 14-15 10h-2l2-4 12-14 13-15 14-18 7-10 11-17 12-21 11-21 7-16 7-20 8-26 6-25 5-39 1-21v-13zm-995 281 2 5 7 7 11 14 9 9 8 7 12 12 6 5 5 5 9 6 13 9 6 4 11 9h4l-2-4-13-11-8-7-10-9-11-9-14-13-8-7-12-11-8-7-15-14z" fill="#6366f1"/>
<path transform="translate(921,10)" d="m0 0h65l36 1 5 2 26 3 29 5 29 6 25 7 35 11 36 14 26 11 16 7 14 8 25 13 11 7 20 12 22 15 18 13 18 14 10 8 14 12 15 14 8 7 15 15 7 8 12 13 9 11 11 13 13 17 14 19 28 44 10 18 12 23 8 16 15 33 9 24 15 47 4 17 8 35 7 43 2 19 2 36v13h-2l-4-10-14-22-13-15-9-10-10-11-2-4-7-43-8-32-15-47-11-28-11-25-8-16-12-23-12-20-7-11-13-19-10-14-14-19-12-14-9-11-8-9-12-12-4-5-8-7-15-15-11-9-15-13-17-13-18-13-19-13-15-10-19-11-22-12-25-13-30-13-27-10-33-11-21-5-31-7-30-5-25-3-12-1-27-1h-44l-34 2-37 5-37 8-35 9-32 11-28 11-20 9-33 16-14 8-23 14-27 18-13 10-18 14-12 9-14-1h-35l-24 3 2-4 12-12 8-7 13-12 11-9 15-12 18-13 19-13 11-8 27-16 23-13 23-11 21-10 37-15 38-13 31-9 28-6 20-4 34-5 16-1 3-1z" fill="#6366f1"/>
<path transform="translate(833,850)" d="m0 0h19l17 5 16 8 9 7 8 8 9 12 8 20 3 14v19l-6 20-8 16-11 13-10 8-16 8-13 4-5 1h-23l-18-4-18-10-11-9-7-8-8-13-4-9-4-18v-18l5-22 7-14 8-11 5-5 9-8 16-8 15-5zm-13 20-11 4-9 7-7 7-2 4v5l5 5h6l13-10 13-7 2-2v-6l-4-6-1-1z" fill="#6366f1"/>
<path transform="translate(1116,850)" d="m0 0h17l15 3 10 4 13 7 12 11 6 7 9 16 5 15 2 10v17l-4 18-6 14-7 10-10 10-4 5-13 8-21 8-17 2-9-1-21-7-17-9-12-11-9-13-7-16-3-12-1-8v-12l2-13 6-17 6-11 8-10 7-7 13-8 13-6zm-15 21-12 6-12 11-3 6v5l4 4h6l15-11 9-6 2-2v-8l-5-5z" fill="#6366f1"/>
<path transform="translate(421,307)" d="m0 0 2 1 4 15 4 10 9 13 6 8-4 8-12 19-17 32-14 30-11 28-12 35-7 25-9 41-4 26-1 10-5 5-14 11-12 11-9 10-4 4h-3v-37l4-43 4-25 4-15 9-34 10-31 10-26 10-24 11-23 8-16 11-20 6-10 10-16 11-16z" fill="#6366f1"/>
<path transform="translate(1540,610)" d="m0 0 4 2 17 12 14 12 8 8 11 15 4 5 14 28 8 24 3 13v35l-3 28-6 30-6 25-5 5-11 9-15 12-19 14-5 4-1-3 12-35 5-21 4-15 5-26 4-33 1-14v-29l-2-17-5-21-10-25-9-16-9-14-8-10z" fill="#6366f1"/>
<path transform="translate(1494,1013)" d="m0 0 2 1-14 13-10 8-13 11-18 13-13 9-19 12-8 5-2-1 22-18 13-8 14-10 12-9 13-11 14-10z" fill="#6366f1"/>
<path transform="translate(1403,1148)" d="m0 0" fill="#6366f1"/>
</svg>