<svg id="svg" version="1.1" width="235" height="245" viewBox="0 0 235 245" xmlns="http://www.w3.org/2000/svg"><path d="M206.892 29.517 C 200.010 35.658,189.576 41.188,180.534 43.486 C 177.253 44.321,174.020 45.565,173.350 46.251 C 171.971 47.664,166.551 67.884,167.340 68.673 C 168.204 69.537,179.069 65.995,179.498 64.708 C 179.720 64.044,180.387 61.601,180.981 59.280 C 181.959 55.459,182.459 54.955,186.280 53.935 C 192.663 52.233,206.793 44.596,213.175 39.399 C 220.155 33.714,221.953 30.104,219.596 26.506 C 217.004 22.551,213.866 23.295,206.892 29.517 M187.489 66.415 C 175.914 71.986,167.370 75.176,152.530 79.468 C 134.661 84.637,129.605 84.992,73.809 84.996 C 42.099 84.998,21.890 85.369,21.529 85.954 C 21.204 86.478,23.708 97.616,27.091 110.704 C 36.326 146.420,36.763 147.773,40.319 151.631 C 43.254 154.814,44.853 155.423,61.000 159.496 C 119.290 174.200,132.222 177.178,133.265 176.135 C 134.554 174.846,142.811 143.001,141.988 142.493 C 141.595 142.249,137.091 141.577,131.981 140.998 C 117.748 139.386,103.951 134.196,95.673 127.341 C 94.119 126.053,93.097 125.000,93.402 125.000 C 93.708 125.000,98.805 126.421,104.729 128.157 C 114.056 130.891,117.109 131.325,127.500 131.389 C 140.801 131.472,146.510 130.377,158.035 125.534 C 169.890 120.551,185.000 109.616,185.000 106.019 C 185.000 101.812,182.568 101.790,173.204 105.910 C 157.976 112.611,137.440 118.000,127.130 118.000 C 116.025 118.000,96.071 112.603,86.157 106.917 C 83.218 105.232,80.968 103.709,81.157 103.533 C 81.346 103.356,84.425 103.847,88.000 104.623 C 97.573 106.700,117.170 107.461,126.000 106.100 C 152.550 102.005,175.202 91.159,196.800 72.198 C 201.896 67.725,203.043 66.173,202.800 64.084 C 202.342 60.138,199.695 60.541,187.489 66.415 M153.500 139.345 L 149.500 140.537 144.185 162.000 C 141.262 173.805,138.727 183.607,138.551 183.782 C 138.375 183.958,133.117 182.801,126.866 181.212 C 39.403 158.976,38.030 158.663,35.961 160.535 C 33.692 162.589,33.370 167.232,35.381 168.901 C 36.994 170.240,36.192 170.024,90.000 183.580 C 112.825 189.331,132.287 194.283,133.250 194.585 C 139.517 196.553,130.805 197.000,86.155 197.000 C 40.105 197.000,37.215 197.105,35.655 198.829 C 33.484 201.228,33.555 204.287,35.829 206.345 C 37.479 207.838,42.519 208.000,87.428 208.000 C 147.299 208.000,144.085 208.664,147.666 195.546 C 150.099 186.630,161.000 140.651,161.000 139.303 C 161.000 137.736,158.860 137.749,153.500 139.345 M48.746 213.750 C 42.609 220.173,42.967 231.130,49.501 236.867 C 60.536 246.555,77.420 239.409,77.368 225.071 C 77.329 214.163,68.051 206.931,63.943 214.606 C 62.742 216.850,62.786 217.561,64.283 220.171 C 67.511 225.795,66.031 230.000,60.823 230.000 C 58.988 230.000,57.508 229.178,56.458 227.576 C 55.014 225.373,55.012 224.877,56.435 222.126 C 58.641 217.861,58.403 214.395,55.777 212.557 C 52.723 210.417,51.778 210.578,48.746 213.750 M106.353 212.465 C 101.454 215.897,99.367 226.942,102.480 232.961 C 104.448 236.767,108.397 239.760,113.131 241.035 C 123.049 243.706,134.000 235.291,134.000 225.000 C 134.000 218.879,128.916 211.000,124.966 211.000 C 120.764 211.000,118.603 217.569,121.532 221.441 C 123.502 224.045,123.381 226.345,121.171 228.345 C 118.340 230.907,114.173 230.473,112.806 227.474 C 111.880 225.441,111.982 224.261,113.327 221.440 C 115.492 216.900,115.435 215.435,113.000 213.000 C 110.618 210.618,109.158 210.501,106.353 212.465 " stroke="#000000" fill="#000000" fill-rule="evenodd"/></svg>