<svg xmlns="http://www.w3.org/2000/svg" viewBox="0 0 350 138.14391635640817" class="looka-1j8o68f"><defs id="SvgjsDefs1451"></defs><g id="SvgjsG1452" featurekey="X3o6dM-0" transform="matrix(7.256141713925626,0,0,7.256141713925626,0.5151842404322752,-51.663735092746926)" fill="#ffffff"><path d="M3.06 14.76 q0.26 -0.14 0.52 0 t0.4 0.39 t0.09 0.52 t-0.41 0.37 q-0.32 0.08 -0.67 0.16 t-0.66 0.14 t-0.53 0.11 t-0.28 0.05 q0.04 0 0.43 0.11 t0.83 0.36 t0.8 0.67 t0.36 1.06 q0 0.7 -0.48 1.11 t-1.12 0.55 q-0.4 0.06 -0.77 0 t-0.66 -0.25 t-0.47 -0.52 t-0.18 -0.79 q0 -0.38 0.25 -0.6 t0.54 -0.28 t0.52 0.06 t0.19 0.42 q-0.1 0.62 0.06 0.9 t0.32 0.28 q0.2 0 0.33 -0.14 t0.15 -0.37 t-0.08 -0.52 t-0.32 -0.59 q-0.18 -0.26 -0.45 -0.47 t-0.54 -0.36 t-0.53 -0.24 t-0.42 -0.13 q-0.18 -0.04 -0.27 -0.25 t-0.08 -0.44 t0.16 -0.42 t0.45 -0.19 q0.6 0 1.29 -0.19 t1.23 -0.51 z M4.92 11.38 q0 -0.48 0.26 -0.67 t0.56 -0.17 t0.53 0.22 t0.17 0.52 q-0.04 0.14 -0.09 0.7 t-0.13 1.36 t-0.15 1.76 t-0.13 1.9 q0.24 -0.52 0.53 -1.01 t0.45 -0.71 q0.16 -0.2 0.46 -0.31 t0.58 -0.1 t0.45 0.14 t0.07 0.41 q-0.06 0.18 -0.14 0.75 t-0.13 1.17 t-0.04 1.08 t0.11 0.48 q0.12 0 0.31 -0.28 t0.39 -0.67 t0.36 -0.8 t0.24 -0.67 q0.06 -0.18 0.19 -0.24 t0.25 -0.04 t0.2 0.13 t0.04 0.29 q-0.06 0.28 -0.26 0.79 t-0.49 1.04 t-0.66 0.94 t-0.75 0.49 q-0.42 0.08 -0.68 -0.08 t-0.4 -0.46 t-0.19 -0.7 t-0.04 -0.78 t0.06 -0.7 t0.11 -0.48 q-0.1 0.04 -0.28 0.45 t-0.37 0.92 t-0.35 1.01 t-0.18 0.74 q0 0.06 -0.02 0.08 l0 0.2 q0 0.28 -0.23 0.43 t-0.5 0.16 t-0.48 -0.12 t-0.17 -0.43 q0.04 -0.5 0.1 -1.29 t0.12 -1.69 t0.12 -1.83 t0.1 -1.73 t0.07 -1.39 t0.03 -0.81 z  M11.4 19.48 q-0.74 0 -1.18 -0.38 t-0.61 -0.94 t-0.1 -1.22 t0.34 -1.21 t0.71 -0.91 t1.04 -0.32 q0.7 0.04 1.14 0.42 t0.64 0.94 t0.17 1.19 t-0.29 1.17 t-0.73 0.9 t-1.13 0.36 z M11.66 18.58 q0.22 0.02 0.36 -0.21 t0.2 -0.6 t0.05 -0.81 t-0.1 -0.82 t-0.25 -0.64 t-0.38 -0.26 q-0.2 0 -0.34 0.24 t-0.21 0.6 t-0.07 0.79 t0.08 0.8 t0.24 0.63 t0.42 0.28 z M14.079999999999998 14.2 q0 -0.38 0.26 -0.62 t0.56 -0.33 t0.53 -0.02 t0.19 0.33 q-0.04 0.22 -0.07 0.58 t-0.07 0.82 q0.2 -0.2 0.51 -0.36 t0.67 -0.14 q0.62 0.04 0.97 0.46 t0.49 1 t0.06 1.24 t-0.34 1.22 t-0.67 0.91 t-0.95 0.31 q-0.36 0 -0.72 -0.24 l-0.12 -0.08 t-0.12 -0.1 q-0.04 0.78 -0.05 1.45 t-0.01 1.07 q0 0.22 -0.23 0.34 t-0.49 0.13 t-0.48 -0.1 t-0.18 -0.35 q0.04 -0.4 0.08 -1.06 t0.07 -1.44 t0.05 -1.6 t0.03 -1.52 t0.02 -1.21 t0.01 -0.69 z M15.68 15.879999999999999 q-0.18 0.42 -0.25 0.9 t-0.03 0.9 t0.2 0.72 t0.4 0.34 q0.2 0.04 0.37 -0.2 t0.28 -0.61 t0.17 -0.82 t0.03 -0.85 t-0.14 -0.67 t-0.33 -0.29 t-0.4 0.16 t-0.3 0.42 z M30.04 20.1 q0.76 0 1.22 -0.51 t0.71 -1.32 t0.34 -1.8 t0.08 -1.95 t-0.05 -1.77 t-0.04 -1.27 q0 -0.4 0.04 -0.99 t0.12 -1.15 t0.2 -0.99 t0.3 -0.55 q0.22 -0.14 0.39 0.21 t0.29 0.96 t0.21 1.39 t0.15 1.49 t0.08 1.25 t0.02 0.68 q0 0.52 -0.03 1.31 t-0.16 1.67 t-0.39 1.75 t-0.71 1.57 t-1.13 1.14 t-1.64 0.44 q-0.8 0 -1.68 -0.46 t-1.76 -1.19 t-1.72 -1.65 t-1.56 -1.84 t-1.29 -1.74 t-0.91 -1.38 q-0.04 0.9 -0.01 1.82 t0.03 2 q0 0.82 -0.07 1.6 t-0.33 1.5 q-0.02 0.1 -0.13 0.26 t-0.27 0.32 t-0.38 0.28 t-0.46 0.12 q-0.38 0 -0.48 -0.19 t-0.1 -0.45 q0 -0.4 0.06 -1 t0.15 -1.26 t0.2 -1.32 t0.2 -1.22 t0.14 -0.95 t0.05 -0.51 q0.12 -0.76 0.16 -1.27 t0.05 -0.85 t0.02 -0.56 t0.07 -0.4 q-0.54 -1 -0.88 -1.77 t-0.34 -1.61 q0 -0.44 0.1 -0.63 t0.22 -0.19 q0.1 0 0.22 0.14 t0.22 0.33 t0.17 0.38 t0.11 0.27 q0.32 0.88 0.9 2.1 t1.35 2.54 t1.7 2.61 t1.96 2.32 t2.12 1.66 t2.17 0.63 z M38.74 16.5 q-0.16 0.22 -0.4 0.36 t-0.52 0.23 t-0.57 0.13 t-0.51 0.06 q-0.06 0.42 -0.07 0.82 t0.04 0.72 t0.16 0.54 t0.31 0.28 q0.26 0.08 0.56 -0.09 t0.58 -0.47 t0.54 -0.7 t0.46 -0.77 t0.34 -0.68 t0.18 -0.45 q0.06 -0.18 0.19 -0.24 t0.25 -0.04 t0.2 0.13 t0.04 0.29 q-0.04 0.12 -0.14 0.47 t-0.29 0.79 t-0.46 0.91 t-0.65 0.86 t-0.87 0.65 t-1.09 0.26 q-0.72 0 -1.12 -0.5 t-0.54 -1.26 t-0.05 -1.63 t0.36 -1.63 t0.68 -1.26 t0.91 -0.5 q0.48 0 0.85 0.33 t0.57 0.77 t0.23 0.9 t-0.17 0.72 z M37.5 14.719999999999999 q-0.14 0.06 -0.3 0.51 t-0.3 1.09 q0.22 0 0.44 -0.05 t0.32 -0.21 q0.08 -0.12 0.1 -0.35 t-0.01 -0.47 t-0.1 -0.4 t-0.15 -0.12 z M42.900000000000006 14.76 q0.26 -0.14 0.52 0 t0.4 0.39 t0.09 0.52 t-0.41 0.37 q-0.32 0.08 -0.67 0.16 t-0.66 0.14 t-0.53 0.11 t-0.28 0.05 q0.04 0 0.43 0.11 t0.83 0.36 t0.8 0.67 t0.36 1.06 q0 0.7 -0.48 1.11 t-1.12 0.55 q-0.4 0.06 -0.77 0 t-0.66 -0.25 t-0.47 -0.52 t-0.18 -0.79 q0 -0.38 0.25 -0.6 t0.54 -0.28 t0.52 0.06 t0.19 0.42 q-0.1 0.62 0.06 0.9 t0.32 0.28 q0.2 0 0.33 -0.14 t0.15 -0.37 t-0.08 -0.52 t-0.32 -0.59 q-0.18 -0.26 -0.45 -0.47 t-0.54 -0.36 t-0.53 -0.24 t-0.42 -0.13 q-0.18 -0.04 -0.27 -0.25 t-0.08 -0.44 t0.16 -0.42 t0.45 -0.19 q0.6 0 1.29 -0.19 t1.23 -0.51 z M44.7 13.440000000000001 q0 -0.14 0.01 -0.27 t0.01 -0.23 q0 -0.48 0.26 -0.67 t0.56 -0.17 t0.53 0.22 t0.17 0.52 l-0.1 0.52 l0.48 0 q0.38 0 0.55 0.13 t0.17 0.28 t-0.18 0.27 t-0.5 0.12 l-0.6 0 q-0.08 0.72 -0.14 1.59 t-0.08 1.64 t0.02 1.28 t0.18 0.51 q0.12 0 0.33 -0.36 t0.43 -0.83 t0.4 -0.92 t0.24 -0.61 q0.04 -0.18 0.18 -0.24 t0.27 -0.03 t0.22 0.14 t0.03 0.29 q-0.12 0.4 -0.32 1.04 t-0.5 1.24 t-0.72 1.04 t-1 0.44 q-0.38 0 -0.62 -0.3 t-0.36 -0.79 t-0.15 -1.13 t-0.01 -1.32 t0.08 -1.37 t0.1 -1.27 l-0.48 0 q-0.32 0 -0.49 -0.12 t-0.18 -0.26 t0.15 -0.26 t0.52 -0.12 l0.54 0 z"></path></g><g id="SvgjsG1453" featurekey="RFbU7s-0" transform="matrix(1.316637992203159,0,0,1.316637992203159,51.42003340484114,111.41616611919912)" fill="#ffffff"><path d="M8.68 12.26 c1.58 0.4 2.94 1.76 2.94 3.66 c0 2.54 -1.6 4.08 -5.1 4.08 l-5.32 0 l0 -14 l5.1 0 c2.88 0 4.32 1.62 4.32 3.48 c0 1.46 -0.92 2.36 -1.94 2.78 z M6.08 8.3 l-2.26 0 l0 3.18 l2.26 0 c1.32 0 1.94 -0.66 1.94 -1.6 c0 -1 -0.66 -1.58 -1.94 -1.58 z M6.4 17.7 c1.78 0 2.6 -0.74 2.6 -2.08 c0 -1.16 -0.82 -2.02 -2.68 -2.02 l-2.5 0 l0 4.1 l2.58 0 z M35.4 6 l2.62 0 l0 8.92 c0 3.4 -2.42 5.38 -5.32 5.38 c-2.92 0 -5.34 -1.98 -5.34 -5.38 l0 -8.92 l2.62 0 l0 8.92 c0 2.2 1.4 2.92 2.72 2.92 s2.7 -0.72 2.7 -2.92 l0 -8.92 z M66.88 6 l-5.3 7.92 l0 6.08 l-2.62 0 l0 -6.08 l-5.3 -7.92 l2.96 0 l3.64 5.54 l3.64 -5.54 l2.98 0 z M109.84 12.26 c1.58 0.4 2.94 1.76 2.94 3.66 c0 2.54 -1.6 4.08 -5.1 4.08 l-5.32 0 l0 -14 l5.1 0 c2.88 0 4.32 1.62 4.32 3.48 c0 1.46 -0.92 2.36 -1.94 2.78 z M107.24 8.3 l-2.26 0 l0 3.18 l2.26 0 c1.32 0 1.94 -0.66 1.94 -1.6 c0 -1 -0.66 -1.58 -1.94 -1.58 z M107.56 17.7 c1.78 0 2.6 -0.74 2.6 -2.08 c0 -1.16 -0.82 -2.02 -2.68 -2.02 l-2.5 0 l0 4.1 l2.58 0 z M131.14 17.58 l6.1 0 l0 2.42 l-6.5 0 l-2.22 0 l0 -14 l2.62 0 l5.92 0 l0 2.42 l-5.92 0 l0 3.36 l4.5 0 l0 2.36 l-4.5 0 l0 3.44 z M157.7 5.76 c2.38 0 3.96 1.52 4.66 2.9 l-1.94 1.14 c-0.74 -1.1 -1.54 -1.72 -2.72 -1.72 c-1.12 0 -1.92 0.66 -1.92 1.56 c0 0.86 0.52 1.36 1.72 1.8 l0.96 0.36 c2.98 1.06 4.28 2.36 4.28 4.36 c0 2.72 -2.58 4.14 -4.96 4.14 c-2.5 0 -4.46 -1.48 -5.1 -3.44 l2.02 -1.06 c0.5 1.12 1.44 2.12 3.08 2.12 c1.24 0 2.24 -0.6 2.24 -1.72 c0 -1.14 -0.72 -1.64 -2.28 -2.22 l-0.9 -0.32 c-2.08 -0.76 -3.66 -1.8 -3.66 -4.12 c0 -2.2 2.02 -3.78 4.52 -3.78 z M187.28 6 l0 2.42 l-3.6 0 l0 11.58 l-2.62 0 l0 -11.58 l-3.58 0 l0 -2.42 l9.8 0 z"></path></g></svg>